<svg width="24" height="24" viewBox="0 0 24 24" fill="none" xmlns="http://www.w3.org/2000/svg">
<path d="M19.96 8.95793C19.29 8.21793 18.28 7.78793 16.88 7.63793V6.87793C16.88 5.50793 16.3 4.18793 15.28 3.26793C14.7767 2.80648 14.1815 2.45658 13.5336 2.24116C12.8856 2.02575 12.1994 1.94967 11.52 2.01793C9.12999 2.24793 7.11999 4.55793 7.11999 7.05793V7.63793C5.71999 7.78793 4.70999 8.21793 4.03999 8.95793C3.06999 10.0379 3.09999 11.4779 3.20999 12.4779L3.90999 18.0479C4.11999 19.9979 4.90999 21.9979 9.20999 21.9979H14.79C19.09 21.9979 19.88 19.9979 20.09 18.0579L20.79 12.4679C20.9 11.4779 20.92 10.0379 19.96 8.95793ZM11.66 3.40793C12.1446 3.35925 12.6341 3.41278 13.0967 3.56508C13.5594 3.71737 13.9849 3.96503 14.3459 4.29206C14.7068 4.61909 14.9952 5.01821 15.1922 5.46363C15.3893 5.90905 15.4907 6.39086 15.49 6.87793V7.57793H8.50999V7.05793C8.50999 5.27793 9.97999 3.56793 11.66 3.40793ZM8.41999 13.1479H8.40999C7.85999 13.1479 7.40999 12.6979 7.40999 12.1479C7.40999 11.5979 7.85999 11.1479 8.40999 11.1479C8.96999 11.1479 9.41999 11.5979 9.41999 12.1479C9.41999 12.6979 8.96999 13.1479 8.41999 13.1479ZM15.42 13.1479H15.41C14.86 13.1479 14.41 12.6979 14.41 12.1479C14.41 11.5979 14.86 11.1479 15.41 11.1479C15.97 11.1479 16.42 11.5979 16.42 12.1479C16.42 12.6979 15.97 13.1479 15.42 13.1479Z" fill="black"/>
</svg>
