<svg width="19" height="19" viewBox="0 0 19 19" fill="none" xmlns="http://www.w3.org/2000/svg">
<path d="M16.8724 6.84428V3.56003C16.8724 2.54003 16.4094 2.12769 15.2592 2.12769H12.3366C11.1864 2.12769 10.7234 2.54003 10.7234 3.56003V6.83705C10.7234 7.86428 11.1864 8.26939 12.3366 8.26939H15.2592C16.4094 8.27662 16.8724 7.86428 16.8724 6.84428ZM16.8724 14.9826V12.06C16.8724 10.9098 16.4094 10.4468 15.2592 10.4468H12.3366C11.1864 10.4468 10.7234 10.9098 10.7234 12.06V14.9826C10.7234 16.1328 11.1864 16.5958 12.3366 16.5958H15.2592C16.4094 16.5958 16.8724 16.1328 16.8724 14.9826ZM8.5532 6.84428V3.56003C8.5532 2.54003 8.09022 2.12769 6.94001 2.12769H4.01746C2.86725 2.12769 2.40427 2.54003 2.40427 3.56003V6.83705C2.40427 7.86428 2.86725 8.26939 4.01746 8.26939H6.94001C8.09022 8.27662 8.5532 7.86428 8.5532 6.84428ZM8.5532 14.9826V12.06C8.5532 10.9098 8.09022 10.4468 6.94001 10.4468H4.01746C2.86725 10.4468 2.40427 10.9098 2.40427 12.06V14.9826C2.40427 16.1328 2.86725 16.5958 4.01746 16.5958H6.94001C8.09022 16.5958 8.5532 16.1328 8.5532 14.9826Z" stroke="white" stroke-width="1.5" stroke-linecap="round" stroke-linejoin="round"/>
</svg>
