<svg width="26" height="26" viewBox="0 0 26 26" fill="none" xmlns="http://www.w3.org/2000/svg">
<path d="M25 12.9993H8.97189M3.31438 12.9993H1M3.31438 12.9993C3.31438 12.2098 3.61234 11.4526 4.14271 10.8943C4.67309 10.336 5.39243 10.0224 6.14249 10.0224C6.89255 10.0224 7.61189 10.336 8.14226 10.8943C8.67263 11.4526 8.97059 12.2098 8.97059 12.9993C8.97059 13.7889 8.67263 14.5461 8.14226 15.1043C7.61189 15.6626 6.89255 15.9763 6.14249 15.9763C5.39243 15.9763 4.67309 15.6626 4.14271 15.1043C3.61234 14.5461 3.31438 13.7889 3.31438 12.9993ZM25 22.0217H17.5431M17.5431 22.0217C17.5431 22.8114 17.2445 23.5695 16.714 24.1279C16.1835 24.6863 15.464 25 14.7137 25C13.9637 25 13.2443 24.685 12.714 24.1267C12.1836 23.5684 11.8856 22.8112 11.8856 22.0217M17.5431 22.0217C17.5431 21.232 17.2445 20.4753 16.714 19.9169C16.1835 19.3584 15.464 19.0447 14.7137 19.0447C13.9637 19.0447 13.2443 19.3584 12.714 19.9167C12.1836 20.4749 11.8856 21.2321 11.8856 22.0217M11.8856 22.0217H1M25 3.97696H20.9719M15.3144 3.97696H1M15.3144 3.97696C15.3144 3.18742 15.6123 2.43022 16.1427 1.87193C16.6731 1.31364 17.3924 1 18.1425 1C18.5139 1 18.8816 1.077 19.2248 1.22661C19.5679 1.37621 19.8796 1.59549 20.1423 1.87193C20.4049 2.14837 20.6132 2.47654 20.7553 2.83772C20.8974 3.1989 20.9706 3.58602 20.9706 3.97696C20.9706 4.3679 20.8974 4.75501 20.7553 5.11619C20.6132 5.47737 20.4049 5.80555 20.1423 6.08198C19.8796 6.35842 19.5679 6.5777 19.2248 6.7273C18.8816 6.87691 18.5139 6.95391 18.1425 6.95391C17.3924 6.95391 16.6731 6.64027 16.1427 6.08198C15.6123 5.52369 15.3144 4.76649 15.3144 3.97696Z" stroke="white" stroke-width="1.5" stroke-miterlimit="10" stroke-linecap="round"/>
</svg>
