<svg width="22" height="22" viewBox="0 0 22 22" fill="none" xmlns="http://www.w3.org/2000/svg">
<path d="M4.87567 13.2948L4.10988 16.1536L1.31093 16.2128C0.474461 14.6614 0 12.8863 0 11C0 9.17589 0.44361 7.45577 1.22994 5.94116H1.23054L3.72238 6.39801L4.81396 8.8749C4.5855 9.54096 4.46097 10.256 4.46097 11C4.46106 11.8074 4.60733 12.5811 4.87567 13.2948Z" fill="#FBBB00"/>
<path d="M21.8078 8.94507C21.9341 9.61048 22 10.2977 22 11C22 11.7875 21.9172 12.5557 21.7595 13.2967C21.224 15.8183 19.8248 18.0201 17.8865 19.5782L17.8859 19.5776L14.7473 19.4175L14.3031 16.6445C15.5892 15.8902 16.5944 14.7098 17.1238 13.2967H11.2418V8.94507H17.2096H21.8078Z" fill="#518EF8"/>
<path d="M17.8859 19.5775L17.8865 19.5781C16.0014 21.0933 13.6067 21.9999 11 21.9999C6.81091 21.9999 3.16884 19.6585 1.31091 16.2129L4.87564 13.2949C5.80459 15.7741 8.19619 17.5389 11 17.5389C12.2051 17.5389 13.3342 17.2131 14.303 16.6444L17.8859 19.5775Z" fill="#28B446"/>
<path d="M18.0213 2.53241L14.4577 5.44981C13.455 4.82307 12.2698 4.46102 11 4.46102C8.13272 4.46102 5.69639 6.30683 4.81399 8.87494L1.23052 5.94121H1.22992C3.06065 2.41154 6.74866 0 11 0C13.669 0 16.1162 0.950727 18.0213 2.53241Z" fill="#F14336"/>
</svg>
