<svg width="19" height="19" viewBox="0 0 19 19" fill="none" xmlns="http://www.w3.org/2000/svg">
<path d="M18.7332 17.3982L15.2108 13.9017C16.5781 12.1956 17.2402 10.03 17.0611 7.85039C16.8819 5.67073 15.8751 3.6426 14.2476 2.18303C12.6202 0.723456 10.4957 -0.0566193 8.31119 0.00320294C6.12665 0.0630252 4.04803 0.958197 2.50275 2.50465C0.95747 4.05111 0.0629774 6.1313 0.00320051 8.3175C-0.0565763 10.5037 0.722906 12.6297 2.18137 14.2585C3.63983 15.8872 5.66642 16.8948 7.84443 17.074C10.0224 17.2533 12.1863 16.5907 13.8911 15.2224L17.385 18.7189C17.4733 18.808 17.5783 18.8787 17.694 18.9269C17.8097 18.9752 17.9338 19 18.0591 19C18.1845 19 18.3086 18.9752 18.4242 18.9269C18.5399 18.8787 18.645 18.808 18.7332 18.7189C18.9043 18.5418 19 18.305 19 18.0586C19 17.8122 18.9043 17.5754 18.7332 17.3982ZM8.56476 15.2224C7.2503 15.2224 5.96535 14.8323 4.87242 14.1015C3.77948 13.3706 2.92764 12.3319 2.42461 11.1165C1.92159 9.90121 1.78998 8.56389 2.04642 7.27371C2.30286 5.98352 2.93583 4.79841 3.8653 3.86823C4.79476 2.93806 5.97898 2.30461 7.26818 2.04797C8.55739 1.79134 9.89369 1.92305 11.1081 2.42646C12.3225 2.92986 13.3605 3.78235 14.0908 4.87612C14.821 5.96989 15.2108 7.25581 15.2108 8.57127C15.2108 10.3353 14.5106 12.027 13.2642 13.2743C12.0179 14.5216 10.3274 15.2224 8.56476 15.2224Z" fill="white"/>
</svg>
