<svg width="24" height="24" viewBox="0 0 24 24" fill="none" xmlns="http://www.w3.org/2000/svg">
<g clip-path="url(#clip0_77_2197)">
<path d="M22.8811 0.253906H1.11894C0.500974 0.253906 0 0.75488 0 1.37285V4.67993C0 5.2979 0.500974 5.79887 1.11894 5.79887H4.44592V10.2746C3.8591 10.946 1.39246 13.8602 1.09407 15.7898C1.09221 15.8146 1.09221 15.8395 1.09407 15.8643V23.2493C1.09407 23.524 1.31674 23.7467 1.59138 23.7467H7.61873C7.78148 23.7464 7.93378 23.6665 8.02652 23.5328L10.5727 19.8677C10.6046 19.8206 10.6281 19.7685 10.6424 19.7135C10.6424 19.6339 10.9059 18.7487 11.1993 17.5353H19.0568C19.3314 17.5353 19.5541 17.3126 19.5541 17.038V5.79887H22.8811C23.499 5.79887 24 5.2979 24 4.67993V1.37285C24 0.75488 23.499 0.253906 22.8811 0.253906ZM11.2242 12.2489C10.8576 14.6486 10.3511 17.0248 9.70742 19.3654L7.35516 22.7471H2.08371V15.924C2.27766 14.7902 3.49109 13.0496 4.44592 11.8511V17.038C4.44592 17.3126 4.66859 17.5353 4.94322 17.5353H6.7385C6.79979 17.5348 6.86053 17.5231 6.91753 17.5005L6.97223 17.4706C7.00785 17.4531 7.04124 17.4314 7.0717 17.406L7.11645 17.3563C7.13952 17.3287 7.15953 17.2986 7.17613 17.2668L7.20597 17.2021C7.20597 17.2021 7.20597 17.2021 7.20597 17.1673C7.70327 15.3273 8.7874 12.1495 9.60796 11.4433C10.1649 10.946 10.4882 10.8913 10.6274 10.8913C10.7325 10.8889 10.8323 10.937 10.896 11.0206C11.1396 11.3818 11.2552 11.8143 11.2242 12.2489ZM18.5595 16.5407H11.438C11.7464 15.193 12.0597 13.6414 12.2138 12.3683C12.2745 11.6589 12.0747 10.9518 11.6519 10.3791C11.4029 10.0883 11.0401 9.91955 10.6573 9.91657C10.0238 9.97239 9.43116 10.2528 8.98632 10.7073C7.83257 11.7019 6.72855 15.3273 6.37547 16.5606H5.44053V3.54607H18.5595V16.5407ZM23.0054 4.67496C23.0054 4.74365 22.9498 4.79928 22.8811 4.79928H19.5541V3.54607H20.4542C20.7288 3.54607 20.9515 3.3234 20.9515 3.04877C20.9515 2.77413 20.7288 2.55146 20.4542 2.55146H3.54579C3.27116 2.55146 3.04849 2.77413 3.04849 3.04877C3.04849 3.3234 3.27116 3.54607 3.54579 3.54607H4.45089V4.82415H1.11894C1.05025 4.82415 0.994613 4.76851 0.994613 4.69982V1.37285C0.994613 1.30415 1.05025 1.24852 1.11894 1.24852H22.8811C22.9498 1.24852 23.0054 1.30415 23.0054 1.37285V4.67496Z" fill="#004CFF"/>
</g>
<defs>
<clipPath id="clip0_77_2197">
<rect width="24" height="24" fill="white"/>
</clipPath>
</defs>
</svg>
